<svg id="Layer_1" data-name="Layer 1" xmlns="http://www.w3.org/2000/svg" viewBox="0 0 844.76 244.82"><defs><style>.cls-1{fill:#73000a;}.cls-2{fill:#fff;}</style></defs><title>grid_uofsc_primary_reverse_on_garnet</title><rect class="cls-1" width="844.76" height="244.82"/><rect class="cls-2" x="47.1" y="62.74" width="118.88" height="118.88" transform="translate(228.71 15.64) rotate(90)"/><rect class="cls-1" x="51.59" y="67.24" width="109.88" height="109.88"/><path class="cls-2" d="M95.26,139l-7.09-3.46c-2.74-1.32-4.28-2.86-4.28-5.33,0-2.69,2.14-4.78,6.15-4.78a8.53,8.53,0,0,1,6.49,2.91l1.59,5.06H102v-8.57a22.1,22.1,0,0,0-11.37-3.19c-10.17,2.2-14.29,6.37-14.29,11.48,0,4.78,3.08,7.53,7.58,9.73l6.76,3.29c3.3,1.54,4.89,3.52,4.89,6.21,0,3.57-2.52,5.77-6.21,5.77A9.91,9.91,0,0,1,82,154.42l-1.87-5H75.48l1.21,8.9a20.74,20.74,0,0,0,11.76,3.74c10-2.47,15.11-6.37,15.11-12.64C103.56,144.75,101.42,142,95.26,139Zm12.11-56.69-5.76.16-6.48-.16-.25,2.33,4.25.66V105.1c0,6.12-2.78,9.71-7.94,9.71-5.36,0-8-3.59-8-9.61V85.28l3.69-.66-.25-2.33-8.14.16-6.83-.16-.25,2.33,3.94.66V105.2c0,8,4,13.45,15.48,13.45,10.06-2.38,12.79-7,12.79-13.65V85.28l4-.66ZM115,109.55l2.47-1c5-2.13,7.66-5.75,7.66-10.46a7.14,7.14,0,0,0-7.44-7.51l-2.46,1.16c-4.9,2.24-7.66,5.79-7.66,10.5S111,109.55,115,109.55Zm1.16-16.48c2.28.49,3.81,2.39,3.81,6.17,0,3.06-1,6.69-3.47,7.88-2.25-.52-3.78-2.39-3.78-6.16C112.68,97.89,113.73,94.27,116.12,93.07Zm21.53-10.78-4.56,2.62c-1.91,1.08-2.84,3.36-3.21,5.38l-.23,1.31h-2l-1.79,1.57-.19.78h3.59l-2.88,16.37a7.1,7.1,0,0,1-1.38,3.29H120.8l-.79,4.18h2.73l4.11-2.73c2.35-1.6,4.07-3.43,4.48-5.71L134,94h4l.41-2.17H134.4l.6-3.43a4.61,4.61,0,0,1,1.19-2.51H141l.68-3.55ZM133,154.7c-2,1.92-2.7,3.68-6.27,3.68-7.75,0-10.95-8-10.95-17.31,0-10.11,3.47-15.82,10.29-15.82,4.5,0,5.45,2.14,6.93,4.06l1.76,5.39h3.79v-9.4c-2.8-1.65-5.89-3.68-11.27-3.68-13.68,2.09-20.62,8.13-20.62,21.1,0,12.64,8.2,19.34,18.86,19.34a42.61,42.61,0,0,0,12.76-4l1.1-9.83h-3.68Z"/><path class="cls-2" d="M207.14,145.2a17.89,17.89,0,0,0,13.19,6.21c7.45,0,12-4.58,12-11.27,0-5.64-3.63-9.27-9.36-11.85l-11.56-5.35c-7.36-3.34-12.8-7.93-12.8-16.34,0-9.74,8.4-16.34,23.69-19.59a34,34,0,0,1,18.44,5.55v13.76h-5.63l-2.78-8.7a14.26,14.26,0,0,0-11.27-4.87c-7.26,0-11.47,3.92-11.47,9.55,0,4.78,3.35,7.84,8.32,10.13l11.65,5.26c8.89,4.2,14.24,9,14.14,18,0,9.84-7.26,17.68-25,21.69a32.7,32.7,0,0,1-20.06-6.5l-2.11-14h7.36Z"/><path class="cls-2" d="M294.45,130.6c0,14.9-9.85,23.87-24.37,26.45-12.52,0-21.4-11-21.4-24.26,0-15.09,9.84-23.87,24.36-26.55C285.56,106.24,294.45,117.22,294.45,130.6ZM272.76,152c6.4,0,9.93-7.92,9.93-18.43,0-13.28-5.35-22.25-12.42-22.25-6.49,0-9.93,7.92-9.93,18.43C260.34,142.16,265.5,152,272.76,152Z"/><path class="cls-2" d="M341.49,143c0,3.91.48,5.44,1.24,7h4.4l.38,3.82-13.76,2.58-2.77-8-13.66,8.69c-12.14,0-15-4-15-15.19V114.08l-6.11.47-.48-4.2,11.95-2.58,5.73-.38v34.28c0,4.58,1.91,6.69,6.3,6.69,2.58,0,5.83-1.91,9-4l1.81-1.24v-29l-5.35.47-.48-4.2,11.09-2.58,5.73-.38Z"/><path class="cls-2" d="M396.83,150.84l4.78,1-.48,3.82-9.55-.28-11.37.28-.48-3.82,6.12-1V95.44l-6.21.2-.48-3.83L391.58,89l5.25-.39v26.76l14.24-9.08c11.75,0,14.43,4.11,14.43,16.05v28.55l6.59,1-.48,3.82-11.37-.28-9.65.28-.47-3.82,4.3-1v-29.5c0-4.49-2.11-6.5-5.64-6.5-2.77,0-6.12,2-9.37,4l-2.58,1.63Z"/><path class="cls-2" d="M513.17,134.88,511,150.17a84.23,84.23,0,0,1-22.65,7.17c-14.52,0-32.22-11.85-32.22-34,0-21.84,15.69-33.57,34.61-36.31,9.65,0,16.73,4,21.22,7v14.43H506L503,99.34c-2.49-3.06-6.13-6.78-14-6.78-13.09,0-19.71,10-19.71,28.18,0,15.86,6.23,30.87,21.52,30.87,5.93,0,8.71-3.16,11.67-5.83l5-10.9Z"/><path class="cls-2" d="M537.12,106.24c12.71,0,16.34,3.25,16.34,15v23.49c0,4,.57,5.63,1.53,7.16h4.68l.48,3.82L546,157.05l-3-8.22-11.18,8.22c-8.51,0-14.52-4.78-14.52-12.52a13.46,13.46,0,0,1,3.72-9.17l21.4-7v-7.82c0-5.73-1-8.4-5.25-8.4a18.29,18.29,0,0,0-7,1.62l-1.52,8.31h-9.85v-8Zm5.25,26.16-12.13,5a8.53,8.53,0,0,0-2,5.83c0,4.77,2.68,6.49,5.16,6.49A10.16,10.16,0,0,0,539,147.5l3.34-2.3Z"/><path class="cls-2" d="M579.18,121.05l10.51-14.33h9.54l-2.65,11.18h-6.89c-2.29.67-5.73,3.53-8.31,6.5l-1.63,1.91v24.34l10.13,1-.48,4.1-14.9-.28-11.28.28-.47-3.82,6.21-1V114.08l-6.21.47-.48-3.91,11.94-2.87,4.4-.38Z"/><path class="cls-2" d="M643.74,130.6c0,14.9-9.85,23.87-24.37,26.45-12.52,0-21.4-11-21.4-24.26,0-15.09,9.84-23.87,24.36-26.55C634.85,106.24,643.74,117.22,643.74,130.6ZM622.05,152c6.4,0,9.93-7.92,9.93-18.43,0-13.28-5.35-22.25-12.42-22.25-6.5,0-9.94,7.92-9.94,18.43C609.62,142.16,614.78,152,622.05,152Z"/><path class="cls-2" d="M656.09,155.43l-11.37.28-.48-3.82,6.12-1V95.45l-6.21.19-.48-3.92,12.42-2.87,5.26-.38v62.37l6.59,1-.48,3.82Z"/><path class="cls-2" d="M684.09,155.43l-11.37.28-.48-3.82,6.21-1V114l-6.21.38-.48-3.82,12.42-2.77,5.26-.38v43.45l6.5,1-.48,3.82ZM678.93,89.5l7.83-.57,2.87.57.57,5.83-1.14,5-7.74.57-2.87-.57-.57-5.83Z"/><path class="cls-2" d="M712.34,155.43l-11.37.28-.48-3.82,6.21-1V114.08l-6.3.47-.48-3.91,12.42-2.87,4.88-.29.28,7.93,14.33-9.17c11.76,0,14.53,3.73,14.53,15.19v29.41l6.59,1-.48,3.82-11.37-.28-9.84.28-.48-3.82,4.4-1v-29.5c0-4.49-2-6.5-5.73-6.5-3.16,0-6.22,2-9.27,4l-2.49,1.72v30.27l4.68,1-.47,3.82Z"/><path class="cls-2" d="M774.55,106.24c12.71,0,16.34,3.25,16.34,15v23.49c0,4,.57,5.63,1.53,7.16h4.68l.48,3.82-14.14,1.34-3.06-8.22-11.18,8.22c-8.5,0-14.52-4.78-14.52-12.52a13.46,13.46,0,0,1,3.72-9.17l21.41-7v-7.82c0-5.73-1-8.4-5.26-8.4a18.2,18.2,0,0,0-7,1.62l-1.53,8.31h-9.84v-8Zm5.26,26.16-12.14,5a8.53,8.53,0,0,0-2,5.83c0,4.77,2.68,6.49,5.16,6.49a10.16,10.16,0,0,0,5.64-2.19l3.35-2.3Z"/><path class="cls-2" d="M376.64,147.65a13.63,13.63,0,0,1-6,1.57c-3.63,0-5-2.77-5-5.83V112.07h11v-4.68h-11.1V95.64H362.2l-7.36,6.59v4.58h-4.31L347,110.45v1.62h7.66v32.27c0,9.27,3.82,12.71,13.47,12.71l7.9-4.32Z"/><path class="cls-2" d="M142.17,157.79l.68-.07v-3.34l-.78,0-.3.84h-.33V154l1.93,0,1.85,0v1.22h-.32l-.31-.84-.77,0v3.34l.66.07,0,.31-1.12,0-1.13,0Zm3.37,0,.48-.07v-3.33l-.49-.07,0-.3.59,0,1,0,1.18,2.83v.52l1.31-3.35.86,0,.69,0,0,.3-.48.07v3.33l.47.07,0,.31-.89,0-.93,0,0-.31.49-.07v-2.65l.09-.71-1.45,3.73h-.59l-1.22-3-.18-.72v3.32l.47.07,0,.31-.68,0-.69,0Z"/></svg>