<svg width="600" height="600" viewBox="0 0 600 600" fill="none" xmlns="http://www.w3.org/2000/svg">
<g clip-path="url(#clip0_104_19)">
<path d="M267.655 64.3332C267.655 64.3332 283.321 62.5 298.987 62.5C314.653 62.5 330.318 64.3332 330.318 64.3332L343.589 121.128C361.284 125.551 377.961 132.546 393.199 141.692L442.757 110.907C442.757 110.907 455.131 120.688 466.208 131.765C477.286 142.843 487.067 155.216 487.067 155.216L456.282 204.775C465.428 220.013 472.423 236.689 476.846 254.384L533.64 267.655C533.64 267.655 535.473 283.321 535.473 298.987C535.473 314.653 533.64 330.318 533.64 330.318L476.846 343.589C472.423 361.284 465.428 377.961 456.282 393.199L487.067 442.757C487.067 442.757 477.285 455.131 466.208 466.208C455.131 477.286 442.757 487.067 442.757 487.067L393.199 456.282C377.961 465.428 361.284 472.423 343.589 476.846L330.318 533.64C330.318 533.64 314.653 535.473 298.987 535.473C283.321 535.473 267.655 533.64 267.655 533.64L254.384 476.846C236.689 472.423 220.013 465.428 204.775 456.282L155.217 487.067C155.217 487.067 142.843 477.286 131.765 466.208C120.688 455.131 110.907 442.757 110.907 442.757L141.692 393.199C132.546 377.961 125.551 361.284 121.128 343.589L64.3332 330.318C64.3332 330.318 62.5 314.653 62.5 298.987C62.5 283.321 64.3332 267.655 64.3332 267.655L121.128 254.384C125.551 236.689 132.546 220.013 141.692 204.775L110.907 155.216C110.907 155.216 120.688 142.843 131.765 131.765C142.843 120.688 155.216 110.907 155.216 110.907L204.775 141.692C220.013 132.546 236.689 125.551 254.384 121.128L267.655 64.3332Z" fill="#D85427"/>
<path d="M354.114 320.26C349.514 330.425 341.958 339.279 332.76 345.509C322.904 352.067 311.406 355.674 298.922 356.002C290.381 356.002 282.496 354.362 275.269 351.411C264.099 346.492 254.9 338.623 248.33 329.113C241.759 319.276 238.146 307.8 237.817 295.339C237.817 286.814 239.46 278.944 242.416 271.73C247.016 260.909 254.9 251.4 264.427 245.17C274.283 238.612 285.781 235.005 298.265 234.677C306.807 234.677 314.691 236.316 321.919 239.267C332.76 243.858 342.287 251.728 348.529 261.237C350.172 263.86 351.814 266.484 353.128 269.435L420.475 252.056C419.49 249.433 418.504 247.137 417.519 244.514C407.663 221.233 391.237 201.558 370.54 187.458C349.843 173.359 324.875 165.161 297.937 165.161C280.853 165.817 263.77 169.424 248.33 175.982C225.005 185.819 205.293 202.214 191.167 222.872C177.04 243.53 168.827 268.451 168.827 295.339C168.827 313.046 172.441 330.097 179.012 345.837C188.867 369.118 205.293 388.792 225.99 402.892C246.687 416.992 271.655 425.19 298.594 425.19C316.334 425.19 333.417 421.583 349.186 415.025C372.511 405.187 392.222 388.792 406.349 368.134C412.591 358.953 417.518 349.116 421.461 338.295L354.114 320.26Z" fill="white"/>
</g>
<defs>
<clipPath id="clip0_104_19">
<rect width="475" height="475" fill="white" transform="translate(62.5 62.5)"/>
</clipPath>
</defs>
</svg>
